# xmcd CD database file
#
# Track frame offsets:
#	150
#	34187
#	70862
#	137462
#	167237
#	198212
#	223187
#
# Disc length: 3198 seconds
#
# Revision: 0
# Processed by: cddbd v1.5.1PL0 Copyright (c) Steve Scherf et al.
# Submitted via: CDex 1.51
#
DISCID=630c7c07
DTITLE=Mat Maneri Qunitet - Acceptance
DYEAR=1996
DGENRE=Jazz
TTITLE0=Dolphy Dance
TTITLE1=My Funny Valentine
TTITLE2=Shroud
TTITLE3=East Broadway Rundown
TTITLE4=Fever Bed
TTITLE5=Acceptance
TTITLE6=Off Shroud
EXTD=YEAR: 1996
EXTT0=
EXTT1=
EXTT2=
EXTT3=
EXTT4=
EXTT5=
EXTT6=
PLAYORDER=
